<svg width="80" height="80" viewBox="0 0 80 80" fill="none" xmlns="http://www.w3.org/2000/svg">
<path d="M40 80C62.0914 80 80 62.0914 80 40C80 17.9086 62.0914 0 40 0C17.9086 0 0 17.9086 0 40C0 62.0914 17.9086 80 40 80Z" fill="black"/>
<path d="M64.1785 27.441C63.598 25.2556 61.8881 23.5345 59.7165 22.9504C55.7812 21.8889 39.9999 21.8889 39.9999 21.8889C39.9999 21.8889 24.2188 21.8889 20.2833 22.9504C18.1117 23.5345 16.4014 25.2556 15.8214 27.441C14.767 31.4021 14.767 39.6668 14.767 39.6668C14.767 39.6668 14.767 47.9311 15.8214 51.8926C16.4014 54.0782 18.1117 55.7989 20.2831 56.3836C24.2186 57.4447 39.9997 57.4447 39.9997 57.4447C39.9997 57.4447 55.781 57.4447 59.7163 56.3836C61.8879 55.7991 63.5978 54.0782 64.1782 51.8928C65.2329 47.9313 65.2329 39.667 65.2329 39.667C65.2329 39.667 65.2329 31.4023 64.1782 27.4412" fill="white"/>
<path d="M34.8386 47.1702L48.0285 39.667L34.8386 32.1628V47.1702Z" fill="black"/>
</svg>
