<svg width="179" height="164" viewBox="0 0 179 164" fill="none" xmlns="http://www.w3.org/2000/svg">
<g clip-path="url(#clip0_207_78)">
<path d="M135.733 21.1519H119.207C117.727 15.8735 112.487 11.9605 106.266 11.9605H100.583V11.0011C100.583 5.28522 95.5057 0.63559 89.2634 0.63559C83.0212 0.63559 77.9438 5.28522 77.9438 11.0011V11.9605H72.2608C66.0406 11.9605 60.8001 15.8735 59.3201 21.1519H42.7947C31.481 21.1519 22.2769 29.5804 22.2769 39.9401V144.983C22.2769 155.343 31.481 163.771 42.7947 163.771H135.733C147.046 163.771 156.25 155.343 156.25 144.983V39.9396C156.25 29.5799 147.046 21.1519 135.733 21.1519ZM72.2608 20.0105H82.3398C84.7678 20.0105 86.7357 18.2086 86.7357 15.9853V11.0011C86.7357 9.72464 87.8699 8.68612 89.2639 8.68612C90.6579 8.68612 91.7921 9.72464 91.7921 11.0011V15.9853C91.7921 18.2086 93.76 20.0105 96.188 20.0105H106.267C108.785 20.0105 110.834 21.8863 110.834 24.1923V25.0122H67.6949V24.1923H67.6939C67.6939 21.8868 69.7424 20.0105 72.2608 20.0105ZM42.7947 29.2025H58.9113C59.0065 31.3484 60.931 33.0627 63.298 33.0627H115.229C117.596 33.0627 119.521 31.3484 119.616 29.2025H135.732C141.067 29.2025 145.579 32.4835 146.994 36.9565H31.5328C32.9483 32.4831 37.4595 29.2025 42.7947 29.2025ZM135.733 155.721H42.7947C37.0927 155.721 32.3309 151.974 31.2847 147.028H147.243C146.197 151.974 141.435 155.721 135.733 155.721ZM147.459 138.978H31.0688V45.007H147.459V138.978Z" fill="#3D3D3D"/>
<path d="M94.1469 74.1956H120.521C122.949 74.1956 124.917 72.3936 124.917 70.1703C124.917 67.947 122.949 66.145 120.521 66.145H94.1469C91.7189 66.145 89.751 67.947 89.751 70.1703C89.751 72.3936 91.7189 74.1956 94.1469 74.1956Z" fill="#3D3D3D"/>
<path d="M94.1469 96.1033H120.521C122.949 96.1033 124.917 94.3013 124.917 92.078C124.917 89.8547 122.949 88.0528 120.521 88.0528H94.1469C91.7189 88.0528 89.751 89.8547 89.751 92.078C89.751 94.3013 91.7189 96.1033 94.1469 96.1033Z" fill="#3D3D3D"/>
<path d="M94.1469 118.011H120.521C122.949 118.011 124.917 116.209 124.917 113.986C124.917 111.762 122.949 109.961 120.521 109.961H94.1469C91.7189 109.961 89.751 111.762 89.751 113.986C89.751 116.209 91.7189 118.011 94.1469 118.011Z" fill="#3D3D3D"/>
<path d="M74.9155 107.145L65.9546 112.43L64.7799 111.504C62.9404 110.052 60.1646 110.241 58.5806 111.926C56.9961 113.611 57.2027 116.152 59.0417 117.603L62.705 120.493C63.5241 121.139 64.5469 121.468 65.575 121.468C66.399 121.468 67.2265 121.257 67.9547 120.827L79.6768 113.912C81.718 112.708 82.3066 110.218 80.9917 108.349C79.6778 106.48 76.9576 105.94 74.9155 107.145Z" fill="#3D3D3D"/>
<path d="M74.9155 85.274L65.9546 90.5596L64.7799 89.6329C62.9404 88.1816 60.1646 88.3708 58.5806 90.0556C56.9961 91.7399 57.2027 94.2816 59.0417 95.7325L62.705 98.6222C63.5241 99.2685 64.5469 99.5977 65.575 99.5977C66.399 99.5977 67.2265 99.3861 67.9547 98.9563L79.6768 92.0418C81.718 90.8378 82.3066 88.3471 80.9917 86.478C79.6778 84.6094 76.9576 84.0695 74.9155 85.274Z" fill="#3D3D3D"/>
<path d="M59.0418 73.8615L62.7051 76.7507C63.5247 77.397 64.547 77.7262 65.5751 77.7262C66.3991 77.7262 67.2265 77.5146 67.9548 77.0848L79.6769 70.1703C81.7181 68.9663 82.3066 66.4755 80.9918 64.6065C79.6779 62.7383 76.9577 62.1985 74.9156 63.4029L65.9547 68.6885L64.7799 67.7618C62.9395 66.3105 60.1652 66.5001 58.5802 68.1845C56.9962 69.8688 57.2028 72.4106 59.0418 73.8615Z" fill="#3D3D3D"/>
</g>
<defs>
<clipPath id="clip0_207_78">
<rect width="178.159" height="163.136" fill="white" transform="translate(0.184082 0.63559)"/>
</clipPath>
</defs>
</svg>
