<svg width="179" height="164" viewBox="0 0 179 164" fill="none" xmlns="http://www.w3.org/2000/svg">
<g clip-path="url(#clip0_207_65)">
<path d="M67.2645 20.9597C72.7702 20.9597 78.1523 22.4547 82.7301 25.2556C87.3079 28.0564 90.8759 32.0374 92.9828 36.6951C95.0898 41.3528 95.641 46.478 94.5669 51.4225C93.4928 56.3671 90.8416 60.909 86.9485 64.4738C83.0553 68.0386 78.0952 70.4663 72.6953 71.4498C67.2954 72.4334 61.6982 71.9286 56.6116 69.9993C51.525 68.07 47.1774 64.8029 44.1186 60.6111C41.0598 56.4193 39.4272 51.4911 39.4272 46.4497C39.4272 39.6893 42.36 33.2059 47.5805 28.4256C52.8011 23.6453 59.8816 20.9597 67.2645 20.9597ZM67.2645 10.7638C59.5565 10.7638 52.0216 12.8567 45.6127 16.7779C39.2037 20.6992 34.2086 26.2725 31.2588 32.7933C28.3091 39.314 27.5373 46.4893 29.0411 53.4117C30.5448 60.334 34.2566 66.6927 39.707 71.6834C45.1573 76.6742 52.1015 80.073 59.6614 81.4499C67.2213 82.8269 75.0573 82.1201 82.1785 79.4192C89.2998 76.7182 95.3864 72.1442 99.6687 66.2757C103.951 60.4072 106.237 53.5077 106.237 46.4497C106.237 36.9852 102.131 27.9083 94.822 21.2159C87.5133 14.5235 77.6006 10.7638 67.2645 10.7638Z" fill="#3D3D3D"/>
<path d="M122.939 153.507H111.804V128.017C111.804 121.257 108.871 114.774 103.651 109.993C98.4303 105.213 91.3498 102.528 83.9669 102.528H50.5621C43.1792 102.528 36.0986 105.213 30.8781 109.993C25.6576 114.774 22.7248 121.257 22.7248 128.017V153.507H11.5898V128.017C11.5898 118.553 15.6958 109.476 23.0045 102.784C30.3133 96.0913 40.226 92.3316 50.5621 92.3316H83.9669C94.303 92.3316 104.216 96.0913 111.524 102.784C118.833 109.476 122.939 118.553 122.939 128.017V153.507Z" fill="#3D3D3D"/>
<path d="M139.641 83.0532L125.222 69.8494L117.372 77.0376L139.641 97.4296L178.614 61.7436L170.764 54.5555L139.641 83.0532Z" fill="#3D3D3D"/>
</g>
<defs>
<clipPath id="clip0_207_65">
<rect width="178.159" height="163.136" fill="white" transform="translate(0.454834 0.567795)"/>
</clipPath>
</defs>
</svg>
