<svg width="180" height="164" viewBox="0 0 180 164" fill="none" xmlns="http://www.w3.org/2000/svg">
<path d="M43.5118 75.8198H69.5397V97.9495H43.5118V75.8198ZM43.5118 127.385H69.5397V105.255H43.5118V127.385ZM43.5118 156.749H69.5397V134.62H43.5118V156.749ZM77.2645 127.385H103.223V105.255H77.1949V127.385H77.2645ZM77.2645 156.749H103.223V134.62H77.1949V156.749H77.2645ZM111.017 134.62V156.749H137.045V134.62H111.017ZM178.384 48.2996L90.2089 6.02617L2.10376 48.4414L7.60163 60.1446L18.8062 54.6831V156.82H31.4721V54.2576H149.085V156.962H161.751V54.825L172.955 60.1446L178.384 48.2996Z" fill="#3D3D3D"/>
</svg>
